<?xml version="1.0" encoding="UTF-8" standalone="no"?>
<svg
   width="48"
   height="48"
   viewBox="0 0 48 48"
   fill="none"
   version="1.1"
   id="svg16"
   xmlns="http://www.w3.org/2000/svg"
   xmlns:svg="http://www.w3.org/2000/svg">
  <defs
     id="defs16" />
  <g
     id="layer4">
    <g
       id="g1"
       transform="matrix(0.99852088,0,0,0.99860926,6.5678724,3.9527377)"
       style="stroke-width:1.00144">
      <path
         d="m 15.6028,9.25436 c 0,0.12056 0,0.24661 0,0.36718 V 30.8633 c -0.2135,3.1018 -2.8185,5.557 -6.00907,5.5241 -3.27815,-0.0329 -5.916,-2.7621 -5.916,-6.0448 V 9.13379 c 0.0602,2.88261 2.29854,5.27751 5.08962,5.71051 v 13.2295 c -1.01245,0.3397 -1.71843,1.2878 -1.71843,2.4223 0,1.4139 1.16569,2.5757 2.57217,2.5757 1.41201,0 2.57221,-1.1344 2.57221,-2.5757 0,-1.1071 -0.706,-2.0551 -1.7185,-2.4223 V 14.8717 c 2.7583,-0.4001 4.9036,-2.6689 5.0897,-5.4639 0.0383,-0.06028 0.0383,-0.12056 0.0383,-0.15344 z"
         fill="url(#paint0_linear_14123_2392)"
         id="path12"
         style="fill:none;fill-opacity:1;stroke:#000000;stroke-width:1.50215;stroke-dasharray:none;stroke-opacity:1" />
      <path
         d="m 31.1724,9.13388 c 0,-0.15345 -0.0328,-0.27402 -0.0602,-0.42746 0,-0.06029 -0.0328,-0.12057 -0.0328,-0.18634 C 31.0466,8.39952 31.0192,8.27347 30.9864,8.12002 30.3132,5.60456 28.0421,3.69741 25.3166,3.67 22.1589,3.63712 19.5211,6.0923 19.3076,9.19416 V 30.4359 c 0,0.1205 0,0.2466 0,0.3672 0,-0.0603 0,-0.0932 0,-0.1535 0.1861,-2.795 2.3314,-5.0638 5.0896,-5.431 V 12.0768 c -1.0124,-0.3398 -1.7184,-1.2879 -1.7184,-2.42229 0,-1.41392 1.1657,-2.57575 2.5722,-2.57575 1.4065,0 2.5721,1.13443 2.5721,2.57575 0,1.10699 -0.7059,2.05509 -1.7184,2.42229 V 25.246 c 2.8185,0.4275 5.0294,2.8224 5.0896,5.7105 V 9.74768 c 0.011,-0.18633 0.011,-0.40007 -0.0219,-0.6138 z"
         fill="url(#paint1_linear_14123_2392)"
         id="path13"
         style="fill:none;fill-opacity:1;stroke:#000000;stroke-width:1.50215;stroke-dasharray:none;stroke-opacity:1" />
      <path
         d="M 34.9159,9.80781 V 31.1701 c 0,1.0138 -0.8264,1.8414 -1.8389,1.8414 -0.5199,0 -0.9796,-0.2138 -1.3189,-0.5535 -0.3393,-0.3398 -0.5527,-0.8002 -0.5527,-1.2879 V 9.77493 c 0,-3.28271 -2.605,-6.01739 -5.916,-6.04479 -3.1578,-0.03289 -5.7956,2.4223 -5.9762,5.52416 v 21.2088 c 0,0.1206 0,0.2138 0,0.3398 0,0.0329 0,0.0932 0,0.1206 0,0 0,0 0,0.0328 v 0.0329 c -0.0931,1.9346 -0.7662,3.7157 -1.8389,5.157 -0.0602,0.0932 -0.1204,0.1535 -0.186,0.2466 -0.2463,0.3069 -0.5199,0.6138 -0.799,0.8878 C 14.7435,39.0289 12.2917,40.103 9.62101,40.103 4.2906,40.0701 0,35.653 0,30.3426 V 8.91452 C 0,7.90066 0.826378,7.07313 1.83883,7.07313 c 0.51991,0 0.97961,0.21373 1.31892,0.55351 0.33931,0.33978 0.55274,0.80013 0.55274,1.28788 V 30.3371 c 0,3.2827 2.60501,6.0174 5.916,6.0448 3.15771,0.0328 5.79561,-2.4223 6.00901,-5.5242 V 9.62148 c 0,-0.12057 0,-0.24662 0,-0.36718 0,-0.03289 0,-0.06029 0,-0.09317 0.0931,-1.93455 0.7662,-3.71565 1.8388,-5.15698 0.0602,-0.09316 0.1204,-0.15345 0.1861,-0.24661 0.2463,-0.3069 0.5199,-0.6138 0.799,-0.88781 1.7458,-1.74822 4.1976,-2.8223667 6.8683,-2.8223667 5.3249,0.0274016 9.5882,4.4500167 9.5882,9.7604467 z"
         fill="#ffffff"
         id="path11"
         style="fill:none;fill-opacity:1;stroke:#000000;stroke-width:2.00287;stroke-dasharray:none;stroke-opacity:1" />
    </g>
  </g>
</svg>
